<?xml version="1.0" encoding="utf-8"?>
<!-- Generator: Adobe Illustrator 16.0.0, SVG Export Plug-In . SVG Version: 6.00 Build 0)  -->
<!DOCTYPE svg PUBLIC "-//W3C//DTD SVG 1.1//EN" "http://www.w3.org/Graphics/SVG/1.1/DTD/svg11.dtd">
<svg version="1.1" id="Layer_1" xmlns="http://www.w3.org/2000/svg" xmlns:xlink="http://www.w3.org/1999/xlink" x="0px" y="0px"
	 width="317.4px" height="284.7px" viewBox="0 0 317.4 284.7" style="enable-background:new 0 0 317.4 284.7;" xml:space="preserve"
	>
<style type="text/css">
<![CDATA[
	.st0{fill:#FFFFFF;}
	.st1{display:inline;}
	.st2{display:none;}
]]>
</style>
<g class="st2">
	<path class="st1" d="M-204.9-41.7c5.7,0,11.3,0,17,0c1.1,0.3,2.2,0.7,3.3,0.8c46.9,6.4,78.4,31.9,94.5,76.2
		c3.3,9.2,4.2,19.3,6.1,29c0,5,0,10,0,15c-0.3,1.3-0.7,2.5-0.8,3.8c-4.6,44.4-36.5,82.9-79.4,95.2c-7.8,2.2-15.8,3.3-23.8,5
		c-5.7,0-11.3,0-17,0c-1.1-0.3-2.2-0.7-3.4-0.8c-44.8-4.5-82.8-35.8-95.6-79c-2.3-7.9-3.4-16.1-5-24.2c0-6.3,0-12.7,0-19
		c0.3-1.1,0.7-2.2,0.9-3.3c7.4-47.1,33.8-78.3,78.9-93.6C-221.4-39.2-213-40.1-204.9-41.7z M-213.1,124.6c-3.3,0-6.2-0.2-9,0.1
		c-5.1,0.6-3.5,4.7-3.8,7.8c-0.2,2.9,0.7,4.9,4.1,4.9c16.8,0,33.6,0,50.4-0.1c1.4,0,3.4-1,4-2.2c2.8-5.8-0.3-10.4-6.8-10.5
		c-1.8,0-3.6,0-5.8,0c0-2.3,0-4.1,0-5.9c0-20.3-0.1-40.6,0.1-60.9c0-4.1-1.3-5.6-5.5-5.5c-11.8,0.2-23.6,0.2-35.5,0
		c-4.5-0.1-5.3,2-5.2,5.8c0.1,3.7-0.2,7.2,5.2,6.9c2.6-0.2,5.2,0,7.8,0C-213.1,85.1-213.1,104.5-213.1,124.6z M-196.3,6.1
		c-9.4-0.1-17.3,7.6-17.3,16.9c-0.1,9.3,7.7,17.2,17.1,17.2c9.5,0,17.3-7.6,17.3-16.9C-179.2,13.9-186.9,6.2-196.3,6.1z"/>
</g>
<g>
	<path class="st0" d="M143.4,34.3c-59.6,0-108,48.4-108,108s48.4,108,108,108s108-48.4,108-108S203.1,34.3,143.4,34.3z M131.8,63.7
		c2.8-3,6.1-4.6,9.8-4.6c4.2,0,7.7,1.4,10.4,4.3c2.7,2.9,4.1,6.2,4.1,10c0,4.2-1.4,7.9-4.2,11.1c-2.8,3.2-6.2,4.7-10.3,4.7
		c-3.8,0-7.1-1.5-9.8-4.5c-2.8-3-4.2-6.4-4.2-10.3C127.6,70.3,129,66.8,131.8,63.7z M170,227.7H117v-7.3c1.7-0.1,3.5-0.3,5.3-0.4
		c1.8-0.1,3.4-0.4,4.7-0.9c2.1-0.7,3.6-1.8,4.6-3.5c1-1.7,1.5-3.8,1.5-6.5v-67.7c0-2.4-0.5-4.5-1.6-6.5c-1.1-2-2.6-3.6-4.5-4.9
		c-1.4-0.9-3.4-1.6-6.1-2.3c-2.7-0.6-5.1-1-7.3-1.2v-7.3l38.7-2.4l1.6,1.6v89.4c0,2.6,0.5,4.7,1.5,6.5c1,1.7,2.6,3,4.7,3.8
		c1.6,0.7,3.2,1.2,4.8,1.6c1.5,0.4,3.3,0.7,5.2,0.8V227.7z"/>
</g>
</svg>
